<?xml version="1.0" encoding="UTF-8"?>
<svg width="13px" height="27px" viewBox="0 0 13 27" version="1.1" xmlns="http://www.w3.org/2000/svg" xmlns:xlink="http://www.w3.org/1999/xlink">
    <!-- Generator: Sketch 42 (36781) - http://www.bohemiancoding.com/sketch -->
    <title>doctor</title>
    <desc>Created with Sketch.</desc>
    <defs></defs>
    <g id="Symbols" stroke="none" stroke-width="1" fill="none" fill-rule="evenodd">
        <g id="doctor">
            <path d="M2,5 L11,5 L11,12 L2,12 L2,5 Z M3,4 L5,4 L5,5 L3,5 L3,4 Z M7,4 L10,4 L10,5 L7,5 L7,4 Z M3,12 L10,12 L10,13 L3,13 L3,12 Z" id="Combined-Shape" fill="#FFDBA8"></path>
            <rect id="Rectangle" fill="#FFDBA8" x="2" y="19" width="2" height="2"></rect>
            <rect id="Rectangle-2" fill="#FFDBA8" x="9" y="19" width="2" height="2"></rect>
            <rect id="Rectangle-4" fill="#000000" x="8" y="7" width="2" height="3"></rect>
            <rect id="Rectangle-5" fill="#FFFFFF" x="8" y="7" width="1" height="1"></rect>
            <rect id="Rectangle-7" fill="#000000" x="3" y="7" width="2" height="3"></rect>
            <rect id="Rectangle-8" fill="#293D73" x="4" y="19" width="5" height="2"></rect>
            <rect id="Rectangle-9" fill="#293D73" x="4" y="21" width="2" height="4"></rect>
            <rect id="Rectangle-10" fill="#293D73" x="7" y="21" width="2" height="4"></rect>
            <rect id="Rectangle-11" fill="#824C26" x="1" y="23" width="3" height="2"></rect>
            <rect id="Rectangle-12" fill="#824C26" x="2" y="21" width="2" height="2"></rect>
            <rect id="Rectangle-6" fill="#FFFFFF" x="3" y="7" width="1" height="1"></rect>
            <rect id="Rectangle-13" fill="#824C26" x="9" y="21" width="2" height="2"></rect>
            <rect id="Rectangle-14" fill="#824C26" x="9" y="23" width="3" height="2"></rect>
            <rect id="Rectangle-17" fill="#FFFFFF" x="3" y="25" width="3" height="2"></rect>
            <rect id="Rectangle-18" fill="#FFFFFF" x="7" y="25" width="3" height="2"></rect>
            <rect id="Rectangle-19" fill="#824C26" x="2" y="14" width="9" height="5"></rect>
            <rect id="Rectangle-32" fill="#824C26" x="6" y="21" width="1" height="4"></rect>
            <rect id="Rectangle-33" fill="#4D2B17" x="3" y="0" width="2" height="4"></rect>
            <rect id="Rectangle-34" fill="#4D2B17" x="5" y="1" width="5" height="3"></rect>
            <rect id="Rectangle-35" fill="#4D2B17" x="5" y="4" width="2" height="1"></rect>
            <rect id="Rectangle-36" fill="#4D2B17" x="6" y="0" width="1" height="1"></rect>
            <rect id="Rectangle-37" fill="#4D2B17" x="8" y="0" width="1" height="1"></rect>
            <rect id="Rectangle-15" fill="#B30C0C" x="4" y="25" width="2" height="1"></rect>
            <rect id="Rectangle-38" fill="#4D2B17" x="10" y="2" width="1" height="1"></rect>
            <rect id="Rectangle-39" fill="#4D2B17" x="10" y="3" width="2" height="2"></rect>
            <rect id="Rectangle-40" fill="#4D2B17" x="12" y="4" width="1" height="5"></rect>
            <rect id="Rectangle-41" fill="#4D2B17" x="11" y="5" width="1" height="6"></rect>
            <rect id="Rectangle-42" fill="#4D2B17" x="1" y="1" width="1" height="10"></rect>
            <rect id="Rectangle-43" fill="#4D2B17" x="2" y="2" width="1" height="3"></rect>
            <rect id="Rectangle-44" fill="#4D2B17" x="0" y="3" width="1" height="6"></rect>
            <rect id="Rectangle-20" fill="#293D73" x="5" y="14" width="3" height="5"></rect>
            <rect id="Rectangle-21" fill="#293D73" x="4" y="13" width="1" height="2"></rect>
            <rect id="Rectangle-22" fill="#293D73" x="8" y="13" width="1" height="2"></rect>
            <rect id="Rectangle-23" fill="#FFFFFF" x="5" y="13" width="3" height="1"></rect>
            <rect id="Rectangle-16" fill="#B30C0C" x="7" y="25" width="2" height="1"></rect>
            <rect id="Rectangle-24" fill="#824C26" x="9" y="13" width="1" height="1"></rect>
            <rect id="Rectangle-3" fill="#B30C0C" x="6" y="13" width="1" height="3"></rect>
            <rect id="Rectangle-25" fill="#824C26" x="3" y="13" width="1" height="1"></rect>
            <rect id="Rectangle-31" fill="#FFDBA8" x="0" y="9" width="1" height="1"></rect>
            <rect id="Rectangle-31" fill="#FFDBA8" x="12" y="9" width="1" height="1"></rect>
        </g>
    </g>
</svg>