<?xml version="1.0" encoding="UTF-8"?>
<svg width="15px" height="26px" viewBox="0 0 15 26" version="1.1" xmlns="http://www.w3.org/2000/svg" xmlns:xlink="http://www.w3.org/1999/xlink">
    <!-- Generator: Sketch 42 (36781) - http://www.bohemiancoding.com/sketch -->
    <title>Tardis_small</title>
    <desc>Created with Sketch.</desc>
    <defs>
        <rect id="path-1" x="7" y="0" width="1" height="1"></rect>
        <mask id="mask-2" maskContentUnits="userSpaceOnUse" maskUnits="objectBoundingBox" x="0" y="0" width="1" height="1" fill="white">
            <use xlink:href="#path-1"></use>
        </mask>
        <rect id="path-3" x="6" y="1" width="1" height="1"></rect>
        <mask id="mask-4" maskContentUnits="userSpaceOnUse" maskUnits="objectBoundingBox" x="0" y="0" width="1" height="1" fill="white">
            <use xlink:href="#path-3"></use>
        </mask>
        <rect id="path-5" x="8" y="1" width="1" height="1"></rect>
        <mask id="mask-6" maskContentUnits="userSpaceOnUse" maskUnits="objectBoundingBox" x="0" y="0" width="1" height="1" fill="white">
            <use xlink:href="#path-5"></use>
        </mask>
        <rect id="path-7" x="13" y="3" width="1" height="1"></rect>
        <mask id="mask-8" maskContentUnits="userSpaceOnUse" maskUnits="objectBoundingBox" x="0" y="0" width="1" height="1" fill="white">
            <use xlink:href="#path-7"></use>
        </mask>
        <rect id="path-9" x="1" y="3" width="1" height="1"></rect>
        <mask id="mask-10" maskContentUnits="userSpaceOnUse" maskUnits="objectBoundingBox" x="0" y="0" width="1" height="1" fill="white">
            <use xlink:href="#path-9"></use>
        </mask>
    </defs>
    <g id="Symbols" stroke="none" stroke-width="1" fill="none" fill-rule="evenodd">
        <g id="Tardis_small">
            <rect id="Rectangle-10" fill="#2D5B89" x="3" y="6" width="9" height="18"></rect>
            <rect id="Rectangle-8" fill="#4775A3" x="8" y="20" width="3" height="3"></rect>
            <rect id="Rectangle-5" fill="#4775A3" x="4" y="16" width="3" height="3"></rect>
            <path d="M2.5,2.5 L12.5,2.5" id="Line" stroke="#0F1E2D" stroke-linecap="square"></path>
            <path d="M14.5,25.5 L14.5,24.5" id="Line" stroke="#0F1E2D" stroke-linecap="square"></path>
            <path d="M13.5,23.5 L13.5,6.5" id="Line" stroke="#0F1E2D" stroke-linecap="square"></path>
            <path d="M12.5,6.5 L12.5,23.5" id="Line" stroke="#224568" stroke-linecap="square"></path>
            <path d="M14.5,5.5 L14.5,4.5" id="Line" stroke="#0F1E2D" stroke-linecap="square"></path>
            <path d="M0.5,4.5 L0.5,5.5" id="Line" stroke="#0F1E2D" stroke-linecap="square"></path>
            <path d="M1.5,6.5 L1.5,23.5" id="Line" stroke="#0F1E2D" stroke-linecap="square"></path>
            <path d="M1.5,24.5 L13.5,24.5" id="Line" stroke="#224568" stroke-linecap="square"></path>
            <path d="M2.5,3.5 L12.5,3.5" id="Line" stroke="#224568" stroke-linecap="square"></path>
            <path d="M1.5,4.5 L1.5,5.5" id="Line" stroke="#224568" stroke-linecap="square"></path>
            <path d="M13.5,4.5 L13.5,5.5" id="Line" stroke="#224568" stroke-linecap="square"></path>
            <use id="Rectangle-11" stroke="#0F1E2D" mask="url(#mask-2)" stroke-width="2" fill="#D8D8D8" xlink:href="#path-1"></use>
            <use id="Rectangle-12" stroke="#0F1E2D" mask="url(#mask-4)" stroke-width="2" fill="#D8D8D8" xlink:href="#path-3"></use>
            <use id="Rectangle-13" stroke="#0F1E2D" mask="url(#mask-6)" stroke-width="2" fill="#D8D8D8" xlink:href="#path-5"></use>
            <rect id="Rectangle-14" fill="#FFFFFF" x="7" y="1" width="1" height="1"></rect>
            <use id="Rectangle-15" stroke="#0F1E2D" mask="url(#mask-8)" stroke-width="2" fill="#D8D8D8" xlink:href="#path-7"></use>
            <use id="Rectangle-16" stroke="#0F1E2D" mask="url(#mask-10)" stroke-width="2" fill="#D8D8D8" xlink:href="#path-9"></use>
            <rect id="Rectangle-7" fill="#4775A3" x="4" y="20" width="3" height="3"></rect>
            <rect id="Rectangle-6" fill="#4775A3" x="8" y="16" width="3" height="3"></rect>
            <rect id="Rectangle" fill="#FFFFFF" x="4" y="7" width="3" height="4"></rect>
            <rect id="Rectangle-2" fill="#FFFFFF" x="8" y="7" width="3" height="4"></rect>
            <rect id="Rectangle-3" fill="#D8D8D8" x="4" y="12" width="3" height="3"></rect>
            <rect id="Rectangle-4" fill="#4775A3" x="8" y="12" width="3" height="3"></rect>
            <rect id="Rectangle-9" fill="#0F1E2D" x="2" y="4" width="11" height="2"></rect>
            <path d="M1.5,25.5 L13.5,25.5" id="Line" stroke="#0F1E2D" stroke-linecap="square"></path>
            <path d="M0.5,24.5 L0.5,25.5" id="Line" stroke="#0F1E2D" stroke-linecap="square"></path>
            <path d="M2.5,6.5 L2.5,23.5" id="Line" stroke="#224568" stroke-linecap="square"></path>
            <path d="M3.5,4.5 L5.5,4.5" id="Line" stroke="#D8D8D8" stroke-linecap="square"></path>
            <path d="M7.5,4.5 L8.5,4.5" id="Line" stroke="#D8D8D8" stroke-linecap="square"></path>
            <path d="M10.5,4.5 L11.5,4.5" id="Line" stroke="#D8D8D8" stroke-linecap="square"></path>
        </g>
    </g>
</svg>